<svg xmlns="http://www.w3.org/2000/svg" xmlns:xlink="http://www.w3.org/1999/xlink" width="200" zoomAndPan="magnify" viewBox="0 0 150 149.999998" height="200" preserveAspectRatio="xMidYMid meet" version="1.2"><defs><clipPath id="55b5c38220"><rect x="0" width="150" y="0" height="150"/></clipPath></defs><g id="89aa8ec288"><g transform="matrix(1,0,0,1,-0.000000000000000028,-0.000000000000007522)"><g clip-path="url(#55b5c38220)"><g style="fill:#ffffff;fill-opacity:1;"><g transform="translate(81.938899, 120.758447)"><path style="stroke:none" d="M -1.625 -0.0625 L -2.375 21.640625 L -6.484375 21.5 L -9.03125 5.53125 L -12.484375 21.296875 L -16.59375 21.15625 L -15.84375 -0.546875 L -12.890625 -0.453125 L -13.171875 7.640625 L -13.5625 15.0625 L -10.109375 -0.265625 L -7.484375 -0.171875 L -4.984375 15.359375 L -4.84375 7.9375 L -4.5625 -0.15625 Z M -1.625 -0.0625 "/></g></g><g style="fill:#ffffff;fill-opacity:1;"><g transform="translate(65.387952, 119.89595)"><path style="stroke:none" d="M -5.546875 -2.15625 C -3.578125 -1.46875 -2.566406 -0.28125 -2.515625 1.40625 C -2.492188 2.476562 -2.753906 3.796875 -3.296875 5.359375 L -5.5625 11.890625 C -6.800781 15.460938 -8.90625 16.734375 -11.875 15.703125 C -13.46875 15.148438 -14.410156 14.296875 -14.703125 13.140625 C -14.992188 11.992188 -14.835938 10.554688 -14.234375 8.828125 L -12.9375 5.078125 L -7.359375 7 L -6.15625 3.5625 C -5.738281 2.351562 -5.578125 1.546875 -5.671875 1.140625 C -5.773438 0.734375 -6.035156 0.457031 -6.453125 0.3125 C -6.867188 0.164062 -7.171875 0.171875 -7.359375 0.328125 C -7.703125 0.585938 -7.945312 0.890625 -8.09375 1.234375 C -8.25 1.585938 -8.429688 2.078125 -8.640625 2.703125 L -9.1875 4.25 L -12.25 3.1875 L -11.921875 2.25 C -11.367188 0.664062 -10.847656 -0.425781 -10.359375 -1.03125 C -9.878906 -1.632812 -9.410156 -2.035156 -8.953125 -2.234375 C -8.046875 -2.660156 -6.910156 -2.632812 -5.546875 -2.15625 Z M -7.984375 8.828125 L -10.46875 7.953125 L -11.25 10.1875 C -11.582031 11.144531 -11.742188 11.859375 -11.734375 12.328125 C -11.722656 12.796875 -11.488281 13.113281 -11.03125 13.28125 C -11.019531 13.28125 -11.015625 13.28125 -11.015625 13.28125 C -10.203125 13.5625 -9.550781 13.097656 -9.0625 11.890625 C -8.96875 11.660156 -8.859375 11.359375 -8.734375 10.984375 Z M -7.984375 8.828125 "/></g></g><g style="fill:#ffffff;fill-opacity:1;"><g transform="translate(54.375756, 115.862759)"><path style="stroke:none" d="M -4.203125 -2.71875 C -3.210938 -2.113281 -2.664062 -1.519531 -2.5625 -0.9375 C -2.457031 -0.351562 -2.6875 0.394531 -3.25 1.3125 L -10 12.359375 L -8.71875 13.15625 L -9.953125 15.1875 L -11.234375 14.390625 L -13.109375 17.453125 L -15.90625 15.75 L -14.03125 12.6875 L -15.5625 11.75 L -14.328125 9.71875 L -12.796875 10.65625 L -6.34375 0.09375 C -6.113281 -0.28125 -6.0625 -0.570312 -6.1875 -0.78125 C -6.3125 -1 -6.710938 -1.316406 -7.390625 -1.734375 L -6.09375 -3.875 Z M -4.203125 -2.71875 "/></g></g><g style="fill:#ffffff;fill-opacity:1;"><g transform="translate(47.455581, 111.727796)"><path style="stroke:none" d="M -1.1875 -1.09375 L -15.90625 14.875 L -21.390625 9.8125 L -19.453125 7.6875 L -16.40625 10.5 L -12.484375 6.265625 L -15.3125 3.65625 L -13.359375 1.53125 L -10.53125 4.140625 L -3.625 -3.34375 Z M -1.1875 -1.09375 "/></g></g><g style="fill:#ffffff;fill-opacity:1;"><g transform="translate(40.191806, 104.803003)"><path style="stroke:none" d="M -1 -1.34375 L -15.828125 9.734375 L -17.796875 7.109375 L -2.96875 -3.96875 Z M -17.1875 10.78125 L -19.453125 12.484375 L -21.421875 9.84375 L -19.15625 8.140625 Z M -17.1875 10.78125 "/></g></g><g style="fill:#ffffff;fill-opacity:1;"><g transform="translate(36.008682, 99.44605)"><path style="stroke:none" d="M -3.03125 -6.1875 L -7.15625 -2.015625 L -1.421875 -2.90625 L -0.09375 -0.1875 L -10.21875 1.109375 L -16.828125 7.75 L -18.109375 5.140625 L -14.125 1.09375 L -19.640625 1.984375 L -20.921875 -0.625 L -11.265625 -1.84375 L -4.359375 -8.90625 Z M -3.03125 -6.1875 "/></g></g><g style="fill:#ffffff;fill-opacity:1;"><g transform="translate(31.642092, 89.916486)"><path style="stroke:none" d=""/></g></g><g style="fill:#ffffff;fill-opacity:1;"><g transform="translate(30.164006, 84.713892)"><path style="stroke:none" d=""/></g></g><g style="fill:#ffffff;fill-opacity:1;"><g transform="translate(29.31109, 79.37308)"><path style="stroke:none" d=""/></g></g><g style="fill:#ffffff;fill-opacity:1;"><g transform="translate(28.941078, 74.328184)"><path style="stroke:none" d="M -8 -1.953125 L -10.140625 -2.171875 L -9.515625 -8.046875 L -7.375 -7.828125 Z M -8 -1.953125 "/></g></g><g style="fill:#ffffff;fill-opacity:1;"><g transform="translate(30.093653, 65.312779)"><path style="stroke:none" d=""/></g></g><g style="fill:#ffffff;fill-opacity:1;"><g transform="translate(31.53397, 60.099602)"><path style="stroke:none" d=""/></g></g><g style="fill:#ffffff;fill-opacity:1;"><g transform="translate(33.580263, 55.093169)"><path style="stroke:none" d=""/></g></g><g style="fill:#ffffff;fill-opacity:1;"><g transform="translate(36.203856, 50.363633)"><path style="stroke:none" d=""/></g></g><g style="fill:#ffffff;fill-opacity:1;"><g transform="translate(38.074072, 46.359612)"><path style="stroke:none" d="M 1.21875 -1.078125 L -13.125 -17.390625 L -10.03125 -20.09375 L 2.765625 -10.21875 L -5.53125 -24.0625 L -2.4375 -26.78125 L 11.90625 -10.46875 L 9.6875 -8.515625 L 4.34375 -14.59375 L -0.46875 -20.28125 L 7.53125 -6.75 L 5.5625 -5.015625 L -6.921875 -14.59375 L -1.921875 -9.09375 L 3.421875 -3.015625 Z M 1.21875 -1.078125 "/></g></g><g style="fill:#ffffff;fill-opacity:1;"><g transform="translate(50.70499, 35.636335)"><path style="stroke:none" d="M 5.53125 -2.234375 C 3.625 -1.378906 2.070312 -1.550781 0.875 -2.75 C 0.113281 -3.519531 -0.601562 -4.664062 -1.28125 -6.1875 L -4.109375 -12.484375 C -5.660156 -15.929688 -5 -18.296875 -2.125 -19.578125 C -0.582031 -20.265625 0.6875 -20.285156 1.6875 -19.640625 C 2.6875 -19.003906 3.5625 -17.847656 4.3125 -16.171875 L 5.9375 -12.546875 L 0.5625 -10.140625 L 2.046875 -6.828125 C 2.566406 -5.660156 3 -4.960938 3.34375 -4.734375 C 3.695312 -4.503906 4.078125 -4.476562 4.484375 -4.65625 C 4.890625 -4.832031 5.101562 -5.046875 5.125 -5.296875 C 5.1875 -5.710938 5.15625 -6.097656 5.03125 -6.453125 C 4.90625 -6.816406 4.707031 -7.300781 4.4375 -7.90625 L 3.765625 -9.40625 L 6.71875 -10.71875 L 7.125 -9.796875 C 7.8125 -8.265625 8.179688 -7.113281 8.234375 -6.34375 C 8.296875 -5.582031 8.234375 -4.972656 8.046875 -4.515625 C 7.679688 -3.585938 6.84375 -2.828125 5.53125 -2.234375 Z M -0.25 -11.90625 L 2.15625 -12.984375 L 1.1875 -15.125 C 0.769531 -16.0625 0.398438 -16.691406 0.078125 -17.015625 C -0.242188 -17.347656 -0.628906 -17.414062 -1.078125 -17.21875 C -1.085938 -17.207031 -1.09375 -17.203125 -1.09375 -17.203125 C -1.875 -16.859375 -2.023438 -16.078125 -1.546875 -14.859375 C -1.460938 -14.640625 -1.34375 -14.347656 -1.1875 -13.984375 Z M -0.25 -11.90625 "/></g></g><g style="fill:#ffffff;fill-opacity:1;"><g transform="translate(61.484481, 31.017813)"><path style="stroke:none" d="M 4.921875 -0.90625 C 3.796875 -0.664062 2.992188 -0.722656 2.515625 -1.078125 C 2.035156 -1.429688 1.6875 -2.140625 1.46875 -3.203125 L -1.203125 -15.859375 L -2.6875 -15.546875 L -3.171875 -17.875 L -1.6875 -18.1875 L -2.421875 -21.703125 L 0.78125 -22.375 L 1.515625 -18.859375 L 3.265625 -19.21875 L 3.75 -16.890625 L 2 -16.53125 L 4.546875 -4.421875 C 4.640625 -3.992188 4.804688 -3.742188 5.046875 -3.671875 C 5.296875 -3.597656 5.804688 -3.644531 6.578125 -3.8125 L 7.09375 -1.359375 Z M 4.921875 -0.90625 "/></g></g><g style="fill:#ffffff;fill-opacity:1;"><g transform="translate(69.152124, 29.165675)"><path style="stroke:none" d="M 7.390625 -9.984375 C 6.347656 -9.523438 5.644531 -9.09375 5.28125 -8.6875 C 4.914062 -8.28125 4.726562 -7.644531 4.71875 -6.78125 L 4.703125 -4.796875 C 4.691406 -3.929688 4.773438 -3.3125 4.953125 -2.9375 C 5.128906 -2.5625 5.421875 -2.367188 5.828125 -2.359375 C 6.234375 -2.359375 6.566406 -2.492188 6.828125 -2.765625 C 7.097656 -3.046875 7.265625 -3.359375 7.328125 -3.703125 Z M 4.71875 0.234375 C 3.507812 0.222656 2.644531 -0.21875 2.125 -1.09375 C 1.613281 -1.96875 1.363281 -3.21875 1.375 -4.84375 L 1.390625 -6.03125 C 1.398438 -7.613281 1.835938 -8.804688 2.703125 -9.609375 C 3.253906 -10.140625 4.191406 -10.65625 5.515625 -11.15625 C 5.753906 -11.226562 6.082031 -11.34375 6.5 -11.5 C 6.925781 -11.65625 7.226562 -11.769531 7.40625 -11.84375 L 7.421875 -13.453125 C 7.429688 -14.453125 7.363281 -15.128906 7.21875 -15.484375 C 7.082031 -15.847656 6.757812 -16.03125 6.25 -16.03125 C 5.738281 -16.039062 5.390625 -15.859375 5.203125 -15.484375 C 5.023438 -15.109375 4.929688 -14.46875 4.921875 -13.5625 L 4.921875 -12.734375 L 1.6875 -12.765625 L 1.6875 -13.328125 C 1.707031 -15.078125 2.046875 -16.410156 2.703125 -17.328125 C 3.367188 -18.242188 4.535156 -18.691406 6.203125 -18.671875 C 7.867188 -18.660156 9.050781 -18.1875 9.75 -17.25 C 10.445312 -16.320312 10.785156 -14.9375 10.765625 -13.09375 L 10.640625 0.109375 L 7.34375 0.0625 L 7.359375 -1.78125 C 7.191406 -1.207031 6.875 -0.726562 6.40625 -0.34375 C 5.9375 0.0390625 5.375 0.234375 4.71875 0.234375 Z M 4.71875 0.234375 "/></g></g><g style="fill:#ffffff;fill-opacity:1;"><g transform="translate(80.792627, 29.2043)"><path style="stroke:none" d="M 5.1875 -0.390625 L 4.734375 1.28125 L 1.5625 0.421875 L 7.296875 -20.71875 L 10.46875 -19.859375 L 9.234375 -15.3125 C 9.523438 -15.695312 9.925781 -15.96875 10.4375 -16.125 C 10.945312 -16.28125 11.457031 -16.289062 11.96875 -16.15625 C 13.488281 -15.75 14.304688 -14.796875 14.421875 -13.296875 C 14.503906 -12.335938 14.363281 -11.195312 14 -9.875 L 11.953125 -2.3125 C 11.941406 -2.289062 11.9375 -2.273438 11.9375 -2.265625 C 11.238281 0.316406 10.222656 1.796875 8.890625 2.171875 C 8.378906 2.328125 7.835938 2.328125 7.265625 2.171875 C 7.253906 2.171875 7.234375 2.164062 7.203125 2.15625 C 5.984375 1.800781 5.3125 0.953125 5.1875 -0.390625 Z M 6.203125 -4.140625 C 5.910156 -3.066406 5.796875 -2.257812 5.859375 -1.71875 C 5.921875 -1.1875 6.21875 -0.847656 6.75 -0.703125 C 7.28125 -0.554688 7.6875 -0.695312 7.96875 -1.125 C 8.25 -1.550781 8.546875 -2.332031 8.859375 -3.46875 L 10.84375 -10.78125 C 11.226562 -12.195312 11.273438 -13.101562 10.984375 -13.5 C 10.847656 -13.664062 10.648438 -13.785156 10.390625 -13.859375 C 9.867188 -13.992188 9.441406 -13.894531 9.109375 -13.5625 C 8.785156 -13.226562 8.484375 -12.546875 8.203125 -11.515625 Z M 6.203125 -4.140625 "/></g></g><g style="fill:#ffffff;fill-opacity:1;"><g transform="translate(92.222856, 32.264513)"><path style="stroke:none" d="M 6.40625 0.875 C 6.851562 1.125 7.265625 1.097656 7.640625 0.796875 C 8.023438 0.503906 8.4375 -0.0234375 8.875 -0.796875 L 12.984375 -7.984375 C 13.429688 -8.773438 13.6875 -9.410156 13.75 -9.890625 C 13.8125 -10.378906 13.617188 -10.75 13.171875 -11 C 12.734375 -11.25 12.320312 -11.222656 11.9375 -10.921875 C 11.5625 -10.628906 11.144531 -10.085938 10.6875 -9.296875 L 6.578125 -2.109375 C 5.898438 -0.929688 5.679688 -0.101562 5.921875 0.375 C 6.015625 0.570312 6.175781 0.738281 6.40625 0.875 Z M 5.09375 3.171875 C 3.582031 2.296875 2.789062 1.238281 2.71875 0 C 2.65625 -1.226562 3.117188 -2.703125 4.109375 -4.421875 L 7.546875 -10.4375 C 9.503906 -13.875 11.816406 -14.828125 14.484375 -13.296875 C 17.160156 -11.765625 17.519531 -9.28125 15.5625 -5.84375 L 12.125 0.171875 C 10.59375 2.847656 8.960938 4.101562 7.234375 3.9375 C 6.566406 3.851562 5.851562 3.597656 5.09375 3.171875 Z M 5.09375 3.171875 "/></g></g><g style="fill:#ffffff;fill-opacity:1;"><g transform="translate(102.481325, 38.447523)"><path style="stroke:none" d="M 1.25 1.109375 L 15.734375 -15.3125 L 18.171875 -13.171875 L 3.6875 3.25 Z M 1.25 1.109375 "/></g></g><g style="fill:#ffffff;fill-opacity:1;"><g transform="translate(107.778221, 43.170916)"><path style="stroke:none" d="M 1.0625 1.28125 L 15.3125 -10.546875 L 17.40625 -8.015625 L 3.15625 3.8125 Z M 16.609375 -11.640625 L 18.796875 -13.46875 L 20.90625 -10.9375 L 18.71875 -9.109375 Z M 16.609375 -11.640625 "/></g></g><g style="fill:#ffffff;fill-opacity:1;"><g transform="translate(112.229123, 48.15334)"><path style="stroke:none" d="M 2.6875 5.484375 C 1.820312 3.859375 1.710938 2.492188 2.359375 1.390625 C 3.015625 0.296875 4.253906 -0.738281 6.078125 -1.71875 L 11.359375 -4.546875 C 13.734375 -5.816406 15.554688 -6.265625 16.828125 -5.890625 C 17.847656 -5.585938 18.710938 -4.765625 19.421875 -3.421875 C 20.140625 -2.085938 20.25 -0.910156 19.75 0.109375 C 19.257812 1.140625 18.253906 2.066406 16.734375 2.890625 L 14.953125 3.84375 L 13.46875 1.0625 L 15.34375 0.0625 C 16.34375 -0.476562 16.921875 -0.90625 17.078125 -1.21875 C 17.234375 -1.539062 17.195312 -1.910156 16.96875 -2.328125 C 16.75 -2.742188 16.40625 -2.9375 15.9375 -2.90625 C 15.46875 -2.882812 14.84375 -2.664062 14.0625 -2.25 L 6.703125 1.6875 C 5.898438 2.125 5.347656 2.519531 5.046875 2.875 C 4.753906 3.238281 4.738281 3.660156 5 4.140625 C 5.351562 4.773438 6.007812 4.898438 6.96875 4.515625 C 7.1875 4.421875 7.4375 4.296875 7.71875 4.140625 C 7.789062 4.109375 7.863281 4.070312 7.9375 4.03125 L 9.890625 2.984375 L 11.375 5.765625 L 9.71875 6.65625 C 8.113281 7.507812 6.722656 7.867188 5.546875 7.734375 C 4.378906 7.609375 3.425781 6.859375 2.6875 5.484375 Z M 2.6875 5.484375 "/></g></g><g style="fill:#ffffff;fill-opacity:1;"><g transform="translate(117.529746, 58.754684)"><path style="stroke:none" d=""/></g></g><g style="fill:#ffffff;fill-opacity:1;"><g transform="translate(119.221047, 63.407532)"><path style="stroke:none" d="M 0.234375 1.59375 L 21.71875 -1.53125 L 22.796875 5.859375 L 19.953125 6.265625 L 19.34375 2.15625 L 13.640625 2.984375 L 14.203125 6.796875 L 11.34375 7.21875 L 10.78125 3.40625 L 0.703125 4.875 Z M 0.234375 1.59375 "/></g></g><g style="fill:#ffffff;fill-opacity:1;"><g transform="translate(120.49807, 73.359045)"><path style="stroke:none" d="M -0.0625 1.671875 L 18.4375 2.40625 L 18.296875 5.6875 L -0.203125 4.953125 Z M 20.140625 2.4375 L 22.984375 2.546875 L 22.859375 5.84375 L 20.015625 5.734375 Z M 20.140625 2.4375 "/></g></g><g style="fill:#ffffff;fill-opacity:1;"><g transform="translate(120.378425, 80.156033)"><path style="stroke:none" d="M -1.546875 6.71875 L 4.296875 6.078125 L -0.71875 3.15625 L -0.046875 0.203125 L 8.640625 5.578125 L 17.953125 4.5625 L 17.296875 7.40625 L 11.65625 8.03125 L 16.515625 10.828125 L 15.859375 13.640625 L 7.59375 8.53125 L -2.234375 9.671875 Z M -1.546875 6.71875 "/></g></g><g style="fill:#ffffff;fill-opacity:1;"><g transform="translate(117.765636, 90.307102)"><path style="stroke:none" d=""/></g></g><g style="fill:#ffffff;fill-opacity:1;"><g transform="translate(115.637893, 95.279474)"><path style="stroke:none" d=""/></g></g><g style="fill:#ffffff;fill-opacity:1;"><g transform="translate(112.937454, 99.965555)"><path style="stroke:none" d=""/></g></g><g style="fill:#ffffff;fill-opacity:1;"><g transform="translate(110.042354, 104.115596)"><path style="stroke:none" d="M 4.984375 6.53125 L 6.5 8.0625 L 2.328125 12.234375 L 0.8125 10.703125 Z M 4.984375 6.53125 "/></g></g><g style="fill:#ffffff;fill-opacity:1;"><g transform="translate(103.475949, 110.395538)"><path style="stroke:none" d=""/></g></g><g style="fill:#ffffff;fill-opacity:1;"><g transform="translate(99.074374, 113.53844)"><path style="stroke:none" d=""/></g></g><g style="fill:#ffffff;fill-opacity:1;"><g transform="translate(94.33223, 116.139172)"><path style="stroke:none" d=""/></g></g><g style="fill:#ffffff;fill-opacity:1;"><g transform="translate(89.315973, 118.161273)"><path style="stroke:none" d=""/></g></g><g style="fill:#ffffff;fill-opacity:1;"><g transform="translate(84.095902, 119.576384)"><path style="stroke:none" d=""/></g></g><g style="fill:#ffffff;fill-opacity:1;"><g transform="translate(78.745182, 120.364712)"><path style="stroke:none" d=""/></g></g><g style="fill:#ffffff;fill-opacity:1;"><g transform="translate(73.338784, 120.515205)"><path style="stroke:none" d=""/></g></g></g></g></g></svg>