<svg xmlns="http://www.w3.org/2000/svg" xmlns:xlink="http://www.w3.org/1999/xlink" width="200" zoomAndPan="magnify" viewBox="0 0 150 149.999998" height="200" preserveAspectRatio="xMidYMid meet" version="1.2"><defs><clipPath id="450236f974"><rect x="0" width="150" y="0" height="150"/></clipPath></defs><g id="22f037c5f8"><g transform="matrix(1,0,0,1,-0.000000000000000028,-0.000000000000007522)"><g clip-path="url(#450236f974)"><g style="fill:#ffffff;fill-opacity:1;"><g transform="translate(81.311736, 120.958372)"><path style="stroke:none" d="M -13.765625 -0.828125 L -14.625 13.359375 C -14.695312 14.585938 -14.320312 15.226562 -13.5 15.28125 C -13 15.3125 -12.601562 15.160156 -12.3125 14.828125 C -12.019531 14.492188 -11.851562 14.003906 -11.8125 13.359375 L -10.96875 -0.65625 L -7.703125 -0.46875 L -8.5625 13.75 C -8.632812 14.957031 -8.265625 15.585938 -7.453125 15.640625 C -6.921875 15.671875 -6.507812 15.488281 -6.21875 15.09375 C -5.925781 14.707031 -5.757812 14.191406 -5.71875 13.546875 L -4.890625 -0.296875 L -1.625 -0.09375 L -2.734375 18.390625 L -6 18.1875 L -5.890625 16.171875 C -6.117188 16.859375 -6.488281 17.382812 -7 17.75 C -7.519531 18.113281 -8.175781 18.273438 -8.96875 18.234375 C -10.332031 18.148438 -11.210938 17.472656 -11.609375 16.203125 C -12.347656 17.398438 -13.425781 17.957031 -14.84375 17.875 C -16 17.800781 -16.816406 17.363281 -17.296875 16.5625 C -17.773438 15.757812 -17.972656 14.613281 -17.890625 13.125 L -17.03125 -1.03125 Z M -13.765625 -0.828125 "/></g></g><g style="fill:#ffffff;fill-opacity:1;"><g transform="translate(63.822647, 119.539212)"><path style="stroke:none" d="M -5.46875 -2.359375 C -3.53125 -1.597656 -2.566406 -0.367188 -2.578125 1.328125 C -2.585938 2.398438 -2.890625 3.707031 -3.484375 5.25 L -5.984375 11.703125 C -7.347656 15.222656 -9.5 16.414062 -12.4375 15.28125 C -14.007812 14.664062 -14.914062 13.773438 -15.15625 12.609375 C -15.394531 11.453125 -15.179688 10.019531 -14.515625 8.3125 L -13.09375 4.609375 L -7.609375 6.734375 L -6.296875 3.34375 C -5.828125 2.144531 -5.632812 1.34375 -5.71875 0.9375 C -5.800781 0.539062 -6.046875 0.257812 -6.453125 0.09375 C -6.867188 -0.0625 -7.171875 -0.0664062 -7.359375 0.078125 C -7.703125 0.328125 -7.957031 0.625 -8.125 0.96875 C -8.300781 1.3125 -8.507812 1.789062 -8.75 2.40625 L -9.328125 3.9375 L -12.34375 2.765625 L -11.984375 1.828125 C -11.378906 0.265625 -10.820312 -0.804688 -10.3125 -1.390625 C -9.8125 -1.984375 -9.332031 -2.375 -8.875 -2.5625 C -7.957031 -2.945312 -6.820312 -2.878906 -5.46875 -2.359375 Z M -8.28125 8.546875 L -10.75 7.59375 L -11.609375 9.796875 C -11.972656 10.742188 -12.15625 11.445312 -12.15625 11.90625 C -12.164062 12.375 -11.941406 12.695312 -11.484375 12.875 C -11.472656 12.875 -11.46875 12.875 -11.46875 12.875 C -10.664062 13.1875 -10.003906 12.75 -9.484375 11.5625 C -9.378906 11.332031 -9.253906 11.035156 -9.109375 10.671875 Z M -8.28125 8.546875 "/></g></g><g style="fill:#ffffff;fill-opacity:1;"><g transform="translate(52.958634, 115.122397)"><path style="stroke:none" d="M -4.109375 -2.859375 C -3.140625 -2.222656 -2.613281 -1.613281 -2.53125 -1.03125 C -2.445312 -0.445312 -2.707031 0.296875 -3.3125 1.203125 L -10.4375 12 L -9.171875 12.84375 L -10.484375 14.828125 L -11.75 13.984375 L -13.734375 16.984375 L -16.453125 15.1875 L -14.46875 12.1875 L -15.96875 11.203125 L -14.65625 9.21875 L -13.15625 10.203125 L -6.34375 -0.125 C -6.09375 -0.488281 -6.03125 -0.78125 -6.15625 -1 C -6.28125 -1.226562 -6.675781 -1.5625 -7.34375 -2 L -5.96875 -4.09375 Z M -4.109375 -2.859375 "/></g></g><g style="fill:#ffffff;fill-opacity:1;"><g transform="translate(46.101179, 110.561008)"><path style="stroke:none" d="M -1.546875 -1.484375 L -12.203125 9.671875 L -11.171875 10.671875 L -12.796875 12.375 L -13.828125 11.375 L -14.5 12.078125 C -15.21875 12.828125 -15.96875 13.222656 -16.75 13.265625 C -17.53125 13.304688 -18.242188 13.015625 -18.890625 12.390625 C -19.546875 11.773438 -20.003906 11.203125 -20.265625 10.671875 L -18.859375 9.1875 C -18.703125 9.382812 -18.503906 9.59375 -18.265625 9.8125 C -17.773438 10.28125 -17.285156 10.257812 -16.796875 9.75 L -16.1875 9.125 L -17.546875 7.828125 L -15.921875 6.125 L -14.5625 7.421875 L -3.90625 -3.734375 Z M -1.546875 -1.484375 "/></g></g><g style="fill:#ffffff;fill-opacity:1;"><g transform="translate(40.20004, 104.803003)"><path style="stroke:none" d="M -1 -1.34375 L -15.828125 9.734375 L -17.796875 7.109375 L -2.96875 -3.96875 Z M -17.1875 10.78125 L -19.453125 12.484375 L -21.421875 9.84375 L -19.15625 8.140625 Z M -17.1875 10.78125 "/></g></g><g style="fill:#ffffff;fill-opacity:1;"><g transform="translate(36.016916, 99.44605)"><path style="stroke:none" d="M -3.03125 -6.1875 L -7.15625 -2.015625 L -1.421875 -2.90625 L -0.09375 -0.1875 L -10.21875 1.109375 L -16.828125 7.75 L -18.109375 5.140625 L -14.125 1.09375 L -19.640625 1.984375 L -20.921875 -0.625 L -11.265625 -1.84375 L -4.359375 -8.90625 Z M -3.03125 -6.1875 "/></g></g><g style="fill:#ffffff;fill-opacity:1;"><g transform="translate(31.650326, 89.916486)"><path style="stroke:none" d=""/></g></g><g style="fill:#ffffff;fill-opacity:1;"><g transform="translate(30.17224, 84.713892)"><path style="stroke:none" d=""/></g></g><g style="fill:#ffffff;fill-opacity:1;"><g transform="translate(29.319325, 79.37308)"><path style="stroke:none" d=""/></g></g><g style="fill:#ffffff;fill-opacity:1;"><g transform="translate(28.949312, 74.328184)"><path style="stroke:none" d="M -8 -1.953125 L -10.140625 -2.171875 L -9.515625 -8.046875 L -7.375 -7.828125 Z M -8 -1.953125 "/></g></g><g style="fill:#ffffff;fill-opacity:1;"><g transform="translate(30.101887, 65.312779)"><path style="stroke:none" d=""/></g></g><g style="fill:#ffffff;fill-opacity:1;"><g transform="translate(31.542204, 60.099602)"><path style="stroke:none" d=""/></g></g><g style="fill:#ffffff;fill-opacity:1;"><g transform="translate(33.588499, 55.093169)"><path style="stroke:none" d=""/></g></g><g style="fill:#ffffff;fill-opacity:1;"><g transform="translate(36.212091, 50.363633)"><path style="stroke:none" d=""/></g></g><g style="fill:#ffffff;fill-opacity:1;"><g transform="translate(37.950782, 46.359453)"><path style="stroke:none" d="M 10.453125 -9.015625 L 1.171875 -19.78125 C 0.367188 -20.71875 -0.347656 -20.910156 -0.984375 -20.359375 C -1.359375 -20.035156 -1.535156 -19.648438 -1.515625 -19.203125 C -1.492188 -18.765625 -1.273438 -18.300781 -0.859375 -17.8125 L 8.3125 -7.171875 L 5.84375 -5.046875 L -3.453125 -15.84375 C -4.242188 -16.757812 -4.945312 -16.953125 -5.5625 -16.421875 C -5.96875 -16.066406 -6.132812 -15.648438 -6.0625 -15.171875 C -6 -14.691406 -5.757812 -14.207031 -5.34375 -13.71875 L 3.71875 -3.203125 L 1.234375 -1.0625 L -10.859375 -15.09375 L -8.375 -17.234375 L -7.0625 -15.703125 C -7.375 -16.359375 -7.472656 -16.992188 -7.359375 -17.609375 C -7.242188 -18.234375 -6.882812 -18.800781 -6.28125 -19.3125 C -5.25 -20.207031 -4.148438 -20.335938 -2.984375 -19.703125 C -3.285156 -21.078125 -2.894531 -22.234375 -1.8125 -23.171875 C -0.9375 -23.921875 -0.0507812 -24.175781 0.84375 -23.9375 C 1.75 -23.695312 2.6875 -23.015625 3.65625 -21.890625 L 12.921875 -11.140625 Z M 10.453125 -9.015625 "/></g></g><g style="fill:#ffffff;fill-opacity:1;"><g transform="translate(51.470089, 35.181759)"><path style="stroke:none" d="M 5.5625 -2.125 C 3.644531 -1.3125 2.097656 -1.515625 0.921875 -2.734375 C 0.179688 -3.515625 -0.507812 -4.671875 -1.15625 -6.203125 L -3.859375 -12.546875 C -5.335938 -16.023438 -4.628906 -18.378906 -1.734375 -19.609375 C -0.179688 -20.273438 1.082031 -20.273438 2.0625 -19.609375 C 3.039062 -18.941406 3.890625 -17.769531 4.609375 -16.09375 L 6.171875 -12.4375 L 0.75 -10.140625 L 2.171875 -6.78125 C 2.671875 -5.601562 3.09375 -4.898438 3.4375 -4.671875 C 3.78125 -4.441406 4.15625 -4.410156 4.5625 -4.578125 C 4.96875 -4.753906 5.1875 -4.960938 5.21875 -5.203125 C 5.289062 -5.609375 5.269531 -5.988281 5.15625 -6.34375 C 5.039062 -6.707031 4.851562 -7.191406 4.59375 -7.796875 L 3.953125 -9.3125 L 6.921875 -10.59375 L 7.3125 -9.671875 C 7.96875 -8.128906 8.316406 -6.96875 8.359375 -6.1875 C 8.410156 -5.414062 8.335938 -4.8125 8.140625 -4.375 C 7.742188 -3.445312 6.882812 -2.695312 5.5625 -2.125 Z M -0.015625 -11.890625 L 2.421875 -12.921875 L 1.484375 -15.09375 C 1.085938 -16.03125 0.726562 -16.664062 0.40625 -17 C 0.0820312 -17.34375 -0.300781 -17.421875 -0.75 -17.234375 C -0.757812 -17.234375 -0.765625 -17.234375 -0.765625 -17.234375 C -1.546875 -16.890625 -1.710938 -16.109375 -1.265625 -14.890625 C -1.191406 -14.648438 -1.078125 -14.347656 -0.921875 -13.984375 Z M -0.015625 -11.890625 "/></g></g><g style="fill:#ffffff;fill-opacity:1;"><g transform="translate(62.336213, 30.77092)"><path style="stroke:none" d="M 4.921875 -0.8125 C 3.785156 -0.59375 2.988281 -0.664062 2.53125 -1.03125 C 2.070312 -1.394531 1.738281 -2.109375 1.53125 -3.171875 L -0.890625 -15.875 L -2.390625 -15.59375 L -2.828125 -17.9375 L -1.328125 -18.21875 L -2 -21.734375 L 1.203125 -22.34375 L 1.875 -18.828125 L 3.640625 -19.171875 L 4.078125 -16.828125 L 2.3125 -16.484375 L 4.625 -4.328125 C 4.707031 -3.898438 4.867188 -3.644531 5.109375 -3.5625 C 5.359375 -3.488281 5.875 -3.523438 6.65625 -3.671875 L 7.109375 -1.21875 Z M 4.921875 -0.8125 "/></g></g><g style="fill:#ffffff;fill-opacity:1;"><g transform="translate(70.037977, 29.066303)"><path style="stroke:none" d="M 7.578125 -9.84375 C 6.523438 -9.40625 5.8125 -8.984375 5.4375 -8.578125 C 5.070312 -8.179688 4.878906 -7.550781 4.859375 -6.6875 L 4.796875 -4.703125 C 4.773438 -3.835938 4.847656 -3.210938 5.015625 -2.828125 C 5.179688 -2.453125 5.46875 -2.257812 5.875 -2.25 C 6.28125 -2.238281 6.617188 -2.367188 6.890625 -2.640625 C 7.160156 -2.910156 7.332031 -3.21875 7.40625 -3.5625 Z M 4.71875 0.328125 C 3.507812 0.285156 2.65625 -0.175781 2.15625 -1.0625 C 1.65625 -1.945312 1.425781 -3.203125 1.46875 -4.828125 L 1.5 -6.015625 C 1.539062 -7.597656 2.003906 -8.78125 2.890625 -9.5625 C 3.453125 -10.082031 4.398438 -10.578125 5.734375 -11.046875 C 5.972656 -11.117188 6.304688 -11.226562 6.734375 -11.375 C 7.160156 -11.519531 7.460938 -11.628906 7.640625 -11.703125 L 7.6875 -13.3125 C 7.71875 -14.3125 7.664062 -14.988281 7.53125 -15.34375 C 7.394531 -15.707031 7.070312 -15.894531 6.5625 -15.90625 C 6.050781 -15.925781 5.703125 -15.75 5.515625 -15.375 C 5.328125 -15.007812 5.21875 -14.375 5.1875 -13.46875 L 5.171875 -12.640625 L 1.9375 -12.734375 L 1.953125 -13.296875 C 1.992188 -15.046875 2.351562 -16.367188 3.03125 -17.265625 C 3.71875 -18.171875 4.894531 -18.597656 6.5625 -18.546875 C 8.226562 -18.492188 9.398438 -18 10.078125 -17.0625 C 10.753906 -16.125 11.066406 -14.734375 11.015625 -12.890625 L 10.640625 0.3125 L 7.34375 0.21875 L 7.390625 -1.625 C 7.210938 -1.0625 6.882812 -0.59375 6.40625 -0.21875 C 5.9375 0.15625 5.375 0.335938 4.71875 0.328125 Z M 4.71875 0.328125 "/></g></g><g style="fill:#ffffff;fill-opacity:1;"><g transform="translate(81.675602, 29.32822)"><path style="stroke:none" d="M 5.1875 -0.296875 L 4.703125 1.375 L 1.5625 0.453125 L 7.703125 -20.578125 L 10.84375 -19.65625 L 9.53125 -15.125 C 9.832031 -15.507812 10.238281 -15.773438 10.75 -15.921875 C 11.257812 -16.078125 11.765625 -16.082031 12.265625 -15.9375 C 13.785156 -15.488281 14.585938 -14.515625 14.671875 -13.015625 C 14.734375 -12.054688 14.570312 -10.921875 14.1875 -9.609375 L 11.984375 -2.078125 C 11.984375 -2.054688 11.976562 -2.039062 11.96875 -2.03125 C 11.21875 0.53125 10.175781 1.992188 8.84375 2.359375 C 8.332031 2.492188 7.796875 2.476562 7.234375 2.3125 C 7.222656 2.3125 7.203125 2.304688 7.171875 2.296875 C 5.960938 1.921875 5.300781 1.054688 5.1875 -0.296875 Z M 6.28125 -4.03125 C 5.96875 -2.957031 5.835938 -2.148438 5.890625 -1.609375 C 5.941406 -1.066406 6.234375 -0.71875 6.765625 -0.5625 C 7.296875 -0.414062 7.703125 -0.550781 7.984375 -0.96875 C 8.273438 -1.394531 8.585938 -2.171875 8.921875 -3.296875 L 11.046875 -10.578125 C 11.453125 -11.984375 11.519531 -12.882812 11.25 -13.28125 C 11.113281 -13.457031 10.914062 -13.582031 10.65625 -13.65625 C 10.144531 -13.8125 9.71875 -13.722656 9.375 -13.390625 C 9.039062 -13.054688 8.722656 -12.378906 8.421875 -11.359375 Z M 6.28125 -4.03125 "/></g></g><g style="fill:#ffffff;fill-opacity:1;"><g transform="translate(93.045012, 32.607097)"><path style="stroke:none" d="M 6.40625 1 C 6.84375 1.257812 7.253906 1.242188 7.640625 0.953125 C 8.023438 0.660156 8.441406 0.132812 8.890625 -0.625 L 13.140625 -7.734375 C 13.609375 -8.503906 13.875 -9.128906 13.9375 -9.609375 C 14.007812 -10.097656 13.828125 -10.472656 13.390625 -10.734375 C 12.953125 -11.003906 12.535156 -10.992188 12.140625 -10.703125 C 11.753906 -10.410156 11.328125 -9.875 10.859375 -9.09375 L 6.609375 -1.984375 C 5.921875 -0.816406 5.691406 0.0078125 5.921875 0.5 C 6.003906 0.695312 6.164062 0.863281 6.40625 1 Z M 5.046875 3.265625 C 3.535156 2.367188 2.757812 1.300781 2.71875 0.0625 C 2.675781 -1.175781 3.164062 -2.644531 4.1875 -4.34375 L 7.734375 -10.28125 C 9.765625 -13.675781 12.101562 -14.582031 14.75 -13 C 17.394531 -11.425781 17.703125 -8.941406 15.671875 -5.546875 L 12.125 0.390625 C 10.539062 3.035156 8.882812 4.257812 7.15625 4.0625 C 6.5 3.976562 5.796875 3.710938 5.046875 3.265625 Z M 5.046875 3.265625 "/></g></g><g style="fill:#ffffff;fill-opacity:1;"><g transform="translate(103.182946, 38.985868)"><path style="stroke:none" d="M 1.234375 1.125 L 16.03125 -15.015625 L 18.421875 -12.8125 L 3.625 3.328125 Z M 1.234375 1.125 "/></g></g><g style="fill:#ffffff;fill-opacity:1;"><g transform="translate(108.388232, 43.810022)"><path style="stroke:none" d="M 1.046875 1.3125 L 15.515625 -10.234375 L 17.5625 -7.671875 L 3.09375 3.875 Z M 16.8125 -11.328125 L 19.046875 -13.109375 L 21.109375 -10.53125 L 18.875 -8.75 Z M 16.8125 -11.328125 "/></g></g><g style="fill:#ffffff;fill-opacity:1;"><g transform="translate(112.742731, 48.876994)"><path style="stroke:none" d="M 2.59375 5.515625 C 1.75 3.878906 1.660156 2.519531 2.328125 1.4375 C 3.003906 0.351562 4.269531 -0.660156 6.125 -1.609375 L 11.453125 -4.34375 C 13.847656 -5.570312 15.675781 -5.976562 16.9375 -5.5625 C 17.9375 -5.226562 18.78125 -4.382812 19.46875 -3.03125 C 20.164062 -1.6875 20.257812 -0.507812 19.75 0.5 C 19.25 1.507812 18.226562 2.40625 16.6875 3.1875 L 14.875 4.125 L 13.4375 1.328125 L 15.34375 0.34375 C 16.351562 -0.164062 16.9375 -0.578125 17.09375 -0.890625 C 17.257812 -1.203125 17.234375 -1.566406 17.015625 -1.984375 C 16.804688 -2.410156 16.460938 -2.617188 15.984375 -2.609375 C 15.515625 -2.597656 14.882812 -2.390625 14.09375 -1.984375 L 6.671875 1.8125 C 5.859375 2.226562 5.300781 2.613281 5 2.96875 C 4.707031 3.320312 4.679688 3.742188 4.921875 4.234375 C 5.265625 4.878906 5.914062 5.015625 6.875 4.640625 C 7.09375 4.554688 7.347656 4.441406 7.640625 4.296875 C 7.710938 4.253906 7.785156 4.210938 7.859375 4.171875 L 9.828125 3.171875 L 11.265625 5.96875 L 9.59375 6.828125 C 7.976562 7.648438 6.582031 7.984375 5.40625 7.828125 C 4.238281 7.679688 3.300781 6.910156 2.59375 5.515625 Z M 2.59375 5.515625 "/></g></g><g style="fill:#ffffff;fill-opacity:1;"><g transform="translate(117.838948, 59.578036)"><path style="stroke:none" d=""/></g></g><g style="fill:#ffffff;fill-opacity:1;"><g transform="translate(119.382504, 64.458428)"><path style="stroke:none" d="M 0.3125 2.125 L 15.59375 -0.078125 L 15.375 -1.5 L 17.6875 -1.828125 L 17.90625 -0.40625 L 18.875 -0.546875 C 19.90625 -0.691406 20.738281 -0.535156 21.375 -0.078125 C 22.007812 0.367188 22.390625 1.035156 22.515625 1.921875 C 22.648438 2.804688 22.65625 3.535156 22.53125 4.109375 L 20.5 4.40625 C 20.5 4.144531 20.476562 3.859375 20.4375 3.546875 C 20.332031 2.867188 19.929688 2.582031 19.234375 2.6875 L 18.359375 2.8125 L 18.625 4.671875 L 16.3125 5 L 16.046875 3.140625 L 0.765625 5.34375 Z M 0.3125 2.125 "/></g></g><g style="fill:#ffffff;fill-opacity:1;"><g transform="translate(120.476826, 72.633172)"><path style="stroke:none" d="M -0.046875 1.671875 L 18.46875 2.109375 L 18.390625 5.390625 L -0.125 4.953125 Z M 20.1875 2.125 L 23.03125 2.1875 L 22.953125 5.484375 L 20.109375 5.421875 Z M 20.1875 2.125 "/></g></g><g style="fill:#ffffff;fill-opacity:1;"><g transform="translate(120.465121, 79.431233)"><path style="stroke:none" d="M -1.4375 6.734375 L 4.390625 6 L -0.671875 3.15625 L -0.046875 0.203125 L 8.71875 5.4375 L 18.015625 4.28125 L 17.40625 7.125 L 11.78125 7.859375 L 16.671875 10.5625 L 16.078125 13.390625 L 7.734375 8.421875 L -2.078125 9.703125 Z M -1.4375 6.734375 "/></g></g><g style="fill:#ffffff;fill-opacity:1;"><g transform="translate(118.013865, 89.622476)"><path style="stroke:none" d=""/></g></g><g style="fill:#ffffff;fill-opacity:1;"><g transform="translate(115.965354, 94.628001)"><path style="stroke:none" d=""/></g></g><g style="fill:#ffffff;fill-opacity:1;"><g transform="translate(113.339655, 99.356367)"><path style="stroke:none" d=""/></g></g><g style="fill:#ffffff;fill-opacity:1;"><g transform="translate(110.510824, 103.551819)"><path style="stroke:none" d="M 5.09375 6.46875 L 6.640625 7.96875 L 2.53125 12.203125 L 0.984375 10.703125 Z M 5.09375 6.46875 "/></g></g><g style="fill:#ffffff;fill-opacity:1;"><g transform="translate(104.044969, 109.93527)"><path style="stroke:none" d=""/></g></g><g style="fill:#ffffff;fill-opacity:1;"><g transform="translate(99.693861, 113.147675)"><path style="stroke:none" d=""/></g></g><g style="fill:#ffffff;fill-opacity:1;"><g transform="translate(94.993607, 115.823384)"><path style="stroke:none" d=""/></g></g><g style="fill:#ffffff;fill-opacity:1;"><g transform="translate(90.010083, 117.924875)"><path style="stroke:none" d=""/></g></g><g style="fill:#ffffff;fill-opacity:1;"><g transform="translate(84.813148, 119.422726)"><path style="stroke:none" d=""/></g></g><g style="fill:#ffffff;fill-opacity:1;"><g transform="translate(79.47562, 120.295919)"><path style="stroke:none" d=""/></g></g><g style="fill:#ffffff;fill-opacity:1;"><g transform="translate(74.072292, 120.532208)"><path style="stroke:none" d=""/></g></g></g></g></g></svg>