<svg xmlns="http://www.w3.org/2000/svg" xmlns:xlink="http://www.w3.org/1999/xlink" width="200" zoomAndPan="magnify" viewBox="0 0 150 149.999998" height="200" preserveAspectRatio="xMidYMid meet" version="1.2"><defs/><g id="4b097304be"><g style="fill:#ffffff;fill-opacity:1;"><g transform="translate(89.366225, 119.819737)"><path style="stroke:none" d="M -2.3125 16.984375 C -2.414062 17.628906 -2.695312 18.179688 -3.15625 18.640625 C -3.613281 19.109375 -4.207031 19.390625 -4.9375 19.484375 C -6.226562 19.640625 -7.160156 19.125 -7.734375 17.9375 C -7.972656 18.539062 -8.34375 19.039062 -8.84375 19.4375 C -9.34375 19.84375 -9.941406 20.085938 -10.640625 20.171875 C -11.609375 20.285156 -12.390625 20.023438 -12.984375 19.390625 C -13.578125 18.765625 -13.953125 17.773438 -14.109375 16.421875 L -15.875 1.921875 L -13.359375 1.625 L -11.59375 16.203125 C -11.4375 17.441406 -10.863281 18 -9.875 17.875 C -8.769531 17.738281 -8.25 17.097656 -8.3125 15.953125 L -10.09375 1.21875 L -7.5625 0.921875 L -5.796875 15.515625 C -5.640625 16.742188 -5.082031 17.300781 -4.125 17.1875 C -3.539062 17.113281 -3.113281 16.867188 -2.84375 16.453125 C -2.582031 16.035156 -2.492188 15.492188 -2.578125 14.828125 L -4.3125 0.515625 L -1.796875 0.21875 L 0.4375 18.59375 L -2.078125 18.890625 Z M -2.3125 16.984375 "/></g></g><g style="fill:#ffffff;fill-opacity:1;"><g transform="translate(72.440696, 121.47693)"><path style="stroke:none" d="M -3.71875 12.328125 C -4.125 14.617188 -4.816406 16.144531 -5.796875 16.90625 C -6.566406 17.5 -7.585938 17.6875 -8.859375 17.46875 C -10.691406 17.144531 -11.695312 16.148438 -11.875 14.484375 C -11.988281 13.554688 -11.914062 12.335938 -11.65625 10.828125 L -11.046875 7.375 L -5.59375 8.328125 L -4.96875 4.703125 C -4.6875 3.117188 -4.632812 2.109375 -4.8125 1.671875 C -5 1.242188 -5.363281 0.976562 -5.90625 0.875 C -6.457031 0.78125 -6.859375 0.941406 -7.109375 1.359375 C -7.367188 1.785156 -7.550781 2.265625 -7.65625 2.796875 C -7.757812 3.328125 -7.84375 3.773438 -7.90625 4.140625 L -8.171875 5.609375 L -10.609375 5.1875 L -10.46875 4.40625 C -10.125 2.476562 -9.75 1.144531 -9.34375 0.40625 C -8.945312 -0.320312 -8.441406 -0.8125 -7.828125 -1.0625 C -7.210938 -1.3125 -6.5 -1.363281 -5.6875 -1.21875 C -4.875 -1.070312 -4.238281 -0.851562 -3.78125 -0.5625 C -3.320312 -0.269531 -2.976562 0.0664062 -2.75 0.453125 C -2.53125 0.847656 -2.375 1.4375 -2.28125 2.21875 C -2.195312 3 -2.300781 4.21875 -2.59375 5.875 Z M -9.25 11.828125 C -9.476562 13.117188 -9.566406 13.90625 -9.515625 14.1875 C -9.472656 14.476562 -9.394531 14.738281 -9.28125 14.96875 C -9.175781 15.195312 -8.929688 15.34375 -8.546875 15.40625 C -7.828125 15.539062 -7.3125 15.316406 -7 14.734375 C -6.695312 14.148438 -6.453125 13.320312 -6.265625 12.25 L -5.875 10.03125 L -8.84375 9.515625 Z M -9.25 11.828125 "/></g></g><g style="fill:#ffffff;fill-opacity:1;"><g transform="translate(61.456929, 119.358185)"><path style="stroke:none" d="M -10.09375 19.359375 L -12.4375 18.421875 L -11.21875 15.3125 L -13.078125 14.578125 L -12.375 12.828125 L -10.515625 13.5625 L -5.546875 1 C -5.367188 0.5625 -5.363281 0.242188 -5.53125 0.046875 C -5.695312 -0.140625 -6.195312 -0.398438 -7.03125 -0.734375 L -6.28125 -2.609375 L -4.671875 -1.984375 C -3.585938 -1.546875 -2.957031 -1.0625 -2.78125 -0.53125 C -2.613281 -0.0078125 -2.726562 0.742188 -3.125 1.734375 L -8.171875 14.5 L -6.578125 15.125 L -7.28125 16.875 L -8.875 16.25 Z M -10.09375 19.359375 "/></g></g><g style="fill:#ffffff;fill-opacity:1;"><g transform="translate(54.029587, 116.383205)"><path style="stroke:none" d="M -11.890625 14.640625 C -13.054688 16.546875 -14.453125 17.003906 -16.078125 16.015625 C -16.679688 15.640625 -17.15625 15.238281 -17.5 14.8125 L -16.578125 13.3125 C -16.328125 13.53125 -16.035156 13.738281 -15.703125 13.9375 C -15.378906 14.132812 -15.085938 14.191406 -14.828125 14.109375 C -14.578125 14.023438 -14.332031 13.789062 -14.09375 13.40625 L -13.578125 12.5625 L -15.421875 11.421875 L -14.453125 9.828125 L -12.609375 10.96875 L -4.265625 -2.609375 L -2.109375 -1.296875 L -10.453125 12.28125 L -9.09375 13.125 L -10.0625 14.71875 L -11.421875 13.875 Z M -11.890625 14.640625 "/></g></g><g style="fill:#ffffff;fill-opacity:1;"><g transform="translate(47.049308, 111.977712)"><path style="stroke:none" d="M -13.5 12.796875 L -15.40625 11.15625 L -3.3125 -2.859375 L -1.40625 -1.21875 Z M -16.140625 15.84375 L -18.0625 14.1875 L -16.546875 12.421875 L -14.625 14.078125 Z M -16.140625 15.84375 "/></g></g><g style="fill:#ffffff;fill-opacity:1;"><g transform="translate(41.951314, 107.695011)"><path style="stroke:none" d="M -14.6875 11.28125 L -16.109375 9.546875 L -12.765625 4.3125 L -18.421875 6.703125 L -19.875 4.921875 L -10.953125 1.515625 L -5.59375 -6.875 L -4.109375 -5.046875 L -7.703125 0.515625 L -1.640625 -2.015625 L -0.203125 -0.25 L -9.578125 3.359375 Z M -14.6875 11.28125 "/></g></g><g style="fill:#ffffff;fill-opacity:1;"><g transform="translate(36.015442, 100.146214)"><path style="stroke:none" d=""/></g></g><g style="fill:#ffffff;fill-opacity:1;"><g transform="translate(32.702079, 94.100824)"><path style="stroke:none" d=""/></g></g><g style="fill:#ffffff;fill-opacity:1;"><g transform="translate(30.319368, 87.631836)"><path style="stroke:none" d=""/></g></g><g style="fill:#ffffff;fill-opacity:1;"><g transform="translate(28.856253, 81.09357)"><path style="stroke:none" d="M -11.125 -0.625 L -11.359375 -6.203125 L -9.6875 -6.28125 L -9.453125 -0.703125 Z M -11.125 -0.625 "/></g></g><g style="fill:#ffffff;fill-opacity:1;"><g transform="translate(28.612147, 72.021541)"><path style="stroke:none" d=""/></g></g><g style="fill:#ffffff;fill-opacity:1;"><g transform="translate(29.540292, 65.190456)"><path style="stroke:none" d=""/></g></g><g style="fill:#ffffff;fill-opacity:1;"><g transform="translate(31.468645, 58.571797)"><path style="stroke:none" d=""/></g></g><g style="fill:#ffffff;fill-opacity:1;"><g transform="translate(34.354791, 52.311185)"><path style="stroke:none" d=""/></g></g><g style="fill:#ffffff;fill-opacity:1;"><g transform="translate(37.016746, 46.820481)"><path style="stroke:none" d="M -8.078125 -15.125 C -8.378906 -15.695312 -8.476562 -16.304688 -8.375 -16.953125 C -8.28125 -17.609375 -7.960938 -18.1875 -7.421875 -18.6875 C -6.472656 -19.5625 -5.414062 -19.691406 -4.25 -19.078125 C -4.40625 -19.703125 -4.394531 -20.320312 -4.21875 -20.9375 C -4.050781 -21.5625 -3.710938 -22.113281 -3.203125 -22.59375 C -2.484375 -23.25 -1.695312 -23.492188 -0.84375 -23.328125 C 0 -23.160156 0.882812 -22.578125 1.8125 -21.578125 L 11.734375 -10.859375 L 9.875 -9.140625 L -0.109375 -19.921875 C -0.953125 -20.835938 -1.738281 -20.957031 -2.46875 -20.28125 C -3.28125 -19.53125 -3.328125 -18.703125 -2.609375 -17.796875 L 7.46875 -6.90625 L 5.59375 -5.1875 L -4.390625 -15.984375 C -5.234375 -16.890625 -6.007812 -17.007812 -6.71875 -16.34375 C -7.15625 -15.945312 -7.359375 -15.5 -7.328125 -15 C -7.296875 -14.507812 -7.054688 -14.019531 -6.609375 -13.53125 L 3.1875 -2.953125 L 1.328125 -1.234375 L -11.25 -14.828125 L -9.390625 -16.546875 Z M -8.078125 -15.125 "/></g></g><g style="fill:#ffffff;fill-opacity:1;"><g transform="translate(49.756485, 35.559477)"><path style="stroke:none" d="M -4.21875 -12.171875 C -5.238281 -14.265625 -5.566406 -15.90625 -5.203125 -17.09375 C -4.929688 -18.03125 -4.222656 -18.78125 -3.078125 -19.34375 C -1.398438 -20.15625 0.00390625 -19.945312 1.140625 -18.71875 C 1.773438 -18.007812 2.425781 -16.96875 3.09375 -15.59375 L 4.625 -12.453125 L -0.34375 -10.03125 L 1.265625 -6.71875 C 1.972656 -5.269531 2.523438 -4.425781 2.921875 -4.1875 C 3.328125 -3.945312 3.773438 -3.945312 4.265625 -4.1875 C 4.765625 -4.425781 5 -4.789062 4.96875 -5.28125 C 4.9375 -5.769531 4.800781 -6.257812 4.5625 -6.75 C 4.332031 -7.238281 4.140625 -7.648438 3.984375 -7.984375 L 3.328125 -9.328125 L 5.546875 -10.40625 L 5.890625 -9.6875 C 6.742188 -7.925781 7.222656 -6.632812 7.328125 -5.8125 C 7.441406 -4.988281 7.320312 -4.289062 6.96875 -3.71875 C 6.613281 -3.15625 6.0625 -2.691406 5.3125 -2.328125 C 4.570312 -1.972656 3.929688 -1.78125 3.390625 -1.75 C 2.859375 -1.71875 2.382812 -1.796875 1.96875 -1.984375 C 1.5625 -2.171875 1.085938 -2.554688 0.546875 -3.140625 C 0.015625 -3.722656 -0.617188 -4.769531 -1.359375 -6.28125 Z M 0.5625 -15.015625 C -0.0078125 -16.191406 -0.394531 -16.878906 -0.59375 -17.078125 C -0.800781 -17.285156 -1.015625 -17.453125 -1.234375 -17.578125 C -1.460938 -17.703125 -1.75 -17.675781 -2.09375 -17.5 C -2.757812 -17.175781 -3.046875 -16.691406 -2.953125 -16.046875 C -2.859375 -15.398438 -2.570312 -14.585938 -2.09375 -13.609375 L -1.109375 -11.578125 L 1.59375 -12.890625 Z M 0.5625 -15.015625 "/></g></g><g style="fill:#ffffff;fill-opacity:1;"><g transform="translate(59.897543, 30.839287)"><path style="stroke:none" d="M -3.15625 -21.609375 L -0.71875 -22.234375 L 0.109375 -19 L 2.0625 -19.484375 L 2.53125 -17.640625 L 0.578125 -17.15625 L 3.90625 -4.0625 C 4.019531 -3.613281 4.195312 -3.351562 4.4375 -3.28125 C 4.6875 -3.21875 5.253906 -3.300781 6.140625 -3.53125 L 6.640625 -1.578125 L 4.953125 -1.140625 C 3.816406 -0.859375 3.023438 -0.878906 2.578125 -1.203125 C 2.140625 -1.523438 1.789062 -2.203125 1.53125 -3.234375 L -1.859375 -16.53125 L -3.515625 -16.109375 L -3.984375 -17.953125 L -2.328125 -18.375 Z M -3.15625 -21.609375 "/></g></g><g style="fill:#ffffff;fill-opacity:1;"><g transform="translate(67.334777, 28.7548)"><path style="stroke:none" d="M 6.796875 -10.5 C 5.773438 -9.976562 5.097656 -9.582031 4.765625 -9.3125 C 4.429688 -9.050781 4.179688 -8.75 4.015625 -8.40625 C 3.859375 -8.0625 3.796875 -7.5 3.828125 -6.71875 L 3.90625 -5 C 3.945312 -3.914062 4.070312 -3.160156 4.28125 -2.734375 C 4.488281 -2.304688 4.820312 -2.097656 5.28125 -2.109375 C 5.75 -2.128906 6.140625 -2.28125 6.453125 -2.5625 C 6.773438 -2.84375 6.988281 -3.144531 7.09375 -3.46875 Z M 1.234375 -13.21875 C 1.140625 -15.457031 1.425781 -16.960938 2.09375 -17.734375 C 2.757812 -18.503906 3.738281 -18.914062 5.03125 -18.96875 C 6.320312 -19.019531 7.265625 -18.742188 7.859375 -18.140625 C 8.460938 -17.546875 8.863281 -16.554688 9.0625 -15.171875 C 9.144531 -14.585938 9.207031 -13.863281 9.25 -13 L 9.78125 -0.40625 L 7.25 -0.3125 L 7.1875 -1.921875 C 7.0625 -1.460938 6.785156 -1.039062 6.359375 -0.65625 C 5.929688 -0.269531 5.390625 -0.0664062 4.734375 -0.046875 C 2.628906 0.046875 1.503906 -1.539062 1.359375 -4.8125 L 1.28125 -6.625 C 1.238281 -7.675781 1.488281 -8.585938 2.03125 -9.359375 C 2.582031 -10.140625 4.148438 -11.066406 6.734375 -12.140625 L 6.671875 -13.578125 C 6.609375 -15.171875 6.453125 -16.117188 6.203125 -16.421875 C 5.960938 -16.734375 5.5625 -16.875 5 -16.84375 C 4.445312 -16.820312 4.085938 -16.566406 3.921875 -16.078125 C 3.753906 -15.585938 3.695312 -14.707031 3.75 -13.4375 L 3.78125 -12.796875 L 1.265625 -12.6875 Z M 1.234375 -13.21875 "/></g></g><g style="fill:#ffffff;fill-opacity:1;"><g transform="translate(78.582945, 28.249855)"><path style="stroke:none" d="M 6.15625 -21.15625 L 8.625 -20.65625 L 7.65625 -15.84375 C 7.882812 -16.28125 8.25 -16.613281 8.75 -16.84375 C 9.257812 -17.070312 9.765625 -17.132812 10.265625 -17.03125 C 11.765625 -16.726562 12.578125 -15.796875 12.703125 -14.234375 C 12.796875 -13.222656 12.695312 -12.003906 12.40625 -10.578125 L 10.984375 -3.609375 C 10.523438 -1.359375 9.898438 0.140625 9.109375 0.890625 C 8.460938 1.503906 7.65625 1.71875 6.6875 1.53125 C 5.507812 1.289062 4.800781 0.554688 4.5625 -0.671875 L 4.25 0.859375 L 1.78125 0.359375 Z M 9.96875 -11.40625 C 10.21875 -12.613281 10.320312 -13.378906 10.28125 -13.703125 C 10.238281 -14.023438 10.164062 -14.3125 10.0625 -14.5625 C 9.957031 -14.8125 9.722656 -14.972656 9.359375 -15.046875 C 9.003906 -15.117188 8.71875 -15.132812 8.5 -15.09375 C 7.800781 -14.9375 7.257812 -13.914062 6.875 -12.03125 L 5.375 -4.6875 C 5.101562 -3.363281 5.023438 -2.394531 5.140625 -1.78125 C 5.253906 -1.175781 5.613281 -0.8125 6.21875 -0.6875 C 6.832031 -0.5625 7.289062 -0.753906 7.59375 -1.265625 C 7.90625 -1.785156 8.203125 -2.734375 8.484375 -4.109375 Z M 9.96875 -11.40625 "/></g></g><g style="fill:#ffffff;fill-opacity:1;"><g transform="translate(89.758356, 30.520472)"><path style="stroke:none" d="M 6.8125 -10.796875 C 8.101562 -13.515625 9.53125 -14.910156 11.09375 -14.984375 C 11.71875 -15.015625 12.367188 -14.875 13.046875 -14.5625 C 14.785156 -13.726562 15.566406 -12.492188 15.390625 -10.859375 C 15.265625 -9.835938 14.878906 -8.644531 14.234375 -7.28125 L 11.4375 -1.359375 C 10.320312 0.992188 9.273438 2.390625 8.296875 2.828125 C 7.316406 3.265625 6.226562 3.195312 5.03125 2.625 C 3.28125 1.800781 2.519531 0.53125 2.75 -1.1875 C 2.894531 -2.164062 3.316406 -3.394531 4.015625 -4.875 Z M 12.15625 -8.84375 C 12.914062 -10.425781 13.144531 -11.492188 12.84375 -12.046875 C 12.71875 -12.285156 12.507812 -12.472656 12.21875 -12.609375 C 11.613281 -12.890625 11.097656 -12.800781 10.671875 -12.34375 C 10.242188 -11.882812 9.796875 -11.160156 9.328125 -10.171875 L 6.015625 -3.15625 C 5.234375 -1.5 4.988281 -0.394531 5.28125 0.15625 C 5.394531 0.382812 5.59375 0.566406 5.875 0.703125 C 5.882812 0.703125 5.898438 0.707031 5.921875 0.71875 C 6.503906 1 7.015625 0.898438 7.453125 0.421875 C 7.890625 -0.0546875 8.351562 -0.804688 8.84375 -1.828125 Z M 12.15625 -8.84375 "/></g></g><g style="fill:#ffffff;fill-opacity:1;"><g transform="translate(100.059875, 35.700073)"><path style="stroke:none" d="M 14.5 -16.578125 L 16.53125 -15.0625 L 3.5 2.59375 L 1.46875 1.078125 Z M 14.5 -16.578125 "/></g></g><g style="fill:#ffffff;fill-opacity:1;"><g transform="translate(105.557977, 39.821638)"><path style="stroke:none" d="M 14.390625 -11.796875 L 16.171875 -10.015625 L 3.09375 3.09375 L 1.3125 1.3125 Z M 17.234375 -14.65625 L 19.03125 -12.875 L 17.390625 -11.21875 L 15.59375 -13 Z M 17.234375 -14.65625 "/></g></g><g style="fill:#ffffff;fill-opacity:1;"><g transform="translate(110.316748, 44.29929)"><path style="stroke:none" d="M 11.140625 -5.71875 C 12.472656 -6.625 13.515625 -7.179688 14.265625 -7.390625 C 15.015625 -7.609375 15.625 -7.691406 16.09375 -7.640625 C 17.09375 -7.515625 17.953125 -6.914062 18.671875 -5.84375 C 19.398438 -4.78125 19.65625 -3.832031 19.4375 -3 C 19.226562 -2.175781 18.632812 -1.351562 17.65625 -0.53125 C 17.226562 -0.195312 16.710938 0.1875 16.109375 0.625 L 15.046875 1.34375 L 13.640625 -0.703125 L 14.984375 -1.625 C 15.941406 -2.269531 16.539062 -2.734375 16.78125 -3.015625 C 17.03125 -3.585938 17.082031 -4.101562 16.9375 -4.5625 C 16.476562 -5.21875 15.863281 -5.394531 15.09375 -5.09375 C 14.613281 -4.914062 14.003906 -4.570312 13.265625 -4.0625 L 6.75 0.359375 C 5.695312 1.066406 5.007812 1.644531 4.6875 2.09375 C 4.375 2.539062 4.375 2.988281 4.6875 3.4375 C 5 3.894531 5.375 4.128906 5.8125 4.140625 C 6.25 4.148438 7.101562 3.722656 8.375 2.859375 L 9.84375 1.859375 L 11.25 3.90625 L 10.265625 4.59375 C 8.179688 6.007812 6.625 6.660156 5.59375 6.546875 C 4.570312 6.429688 3.675781 5.8125 2.90625 4.6875 C 1.695312 2.90625 1.941406 1.21875 3.640625 -0.375 C 4.265625 -0.96875 5.0625 -1.59375 6.03125 -2.25 Z M 11.140625 -5.71875 "/></g></g><g style="fill:#ffffff;fill-opacity:1;"><g transform="translate(116.371492, 53.656271)"><path style="stroke:none" d=""/></g></g><g style="fill:#ffffff;fill-opacity:1;"><g transform="translate(119.066508, 59.870433)"><path style="stroke:none" d="M 18.734375 -2.140625 C 20.898438 -2.679688 22.21875 -2.023438 22.6875 -0.171875 C 22.851562 0.515625 22.910156 1.128906 22.859375 1.671875 L 21.15625 2.109375 C 21.125 1.765625 21.0625 1.40625 20.96875 1.03125 C 20.882812 0.65625 20.71875 0.410156 20.46875 0.296875 C 20.226562 0.179688 19.890625 0.175781 19.453125 0.28125 L 18.484375 0.53125 L 19 2.640625 L 17.203125 3.09375 L 16.6875 0.984375 L 1.21875 4.84375 L 0.59375 2.390625 L 16.0625 -1.46875 L 15.6875 -3.015625 L 17.484375 -3.46875 L 17.859375 -1.921875 Z M 18.734375 -2.140625 "/></g></g><g style="fill:#ffffff;fill-opacity:1;"><g transform="translate(120.960995, 67.900361)"><path style="stroke:none" d="M 18.609375 0.328125 L 18.8125 2.828125 L 0.359375 4.359375 L 0.15625 1.859375 Z M 22.625 -0.015625 L 22.828125 2.5 L 20.515625 2.703125 L 20.3125 0.1875 Z M 22.625 -0.015625 "/></g></g><g style="fill:#ffffff;fill-opacity:1;"><g transform="translate(121.60572, 74.528396)"><path style="stroke:none" d="M 18.390625 2.234375 L 18.1875 4.453125 L 12.125 5.859375 L 17.84375 8.109375 L 17.640625 10.40625 L 8.875 6.578125 L -0.8125 8.828125 L -0.59375 6.46875 L 5.859375 5.046875 L -0.234375 2.59375 L -0.03125 0.328125 L 9.1875 4.296875 Z M 18.390625 2.234375 "/></g></g><g style="fill:#ffffff;fill-opacity:1;"><g transform="translate(120.557826, 84.073428)"><path style="stroke:none" d=""/></g></g><g style="fill:#ffffff;fill-opacity:1;"><g transform="translate(118.691927, 90.709952)"><path style="stroke:none" d=""/></g></g><g style="fill:#ffffff;fill-opacity:1;"><g transform="translate(115.864875, 96.99748)"><path style="stroke:none" d=""/></g></g><g style="fill:#ffffff;fill-opacity:1;"><g transform="translate(112.339982, 102.693721)"><path style="stroke:none" d="M 7.5 8.234375 L 3.765625 12.375 L 2.53125 11.265625 L 6.265625 7.125 Z M 7.5 8.234375 "/></g></g><g style="fill:#ffffff;fill-opacity:1;"><g transform="translate(106.156213, 109.33999)"><path style="stroke:none" d=""/></g></g><g style="fill:#ffffff;fill-opacity:1;"><g transform="translate(100.711412, 113.56836)"><path style="stroke:none" d=""/></g></g><g style="fill:#ffffff;fill-opacity:1;"><g transform="translate(94.70104, 116.944871)"><path style="stroke:none" d=""/></g></g><g style="fill:#ffffff;fill-opacity:1;"><g transform="translate(88.257362, 119.395189)"><path style="stroke:none" d=""/></g></g><g style="fill:#ffffff;fill-opacity:1;"><g transform="translate(81.522117, 120.865441)"><path style="stroke:none" d=""/></g></g><g style="fill:#ffffff;fill-opacity:1;"><g transform="translate(74.643488, 121.323283)"><path style="stroke:none" d=""/></g></g><g style="fill:#ffffff;fill-opacity:1;"><g transform="translate(67.772803, 120.758616)"><path style="stroke:none" d=""/></g></g></g></svg>